<svg xmlns="http://www.w3.org/2000/svg" xmlns:xlink="http://www.w3.org/1999/xlink" version="1.1" x="0px" y="0px" viewBox="0 0 64 80" enable-background="new 0 0 64 64" width= "20"  height="20" xml:space="preserve"><path fill="#FFF" d="M10,34H4c-1.1044922,0-2-0.8955078-2-2s0.8955078-2,2-2h6c1.1044922,0,2,0.8955078,2,2S11.1044922,34,10,34z   M15.0297852,46.1420898l-4.2426758,4.2426758c-0.78125,0.7807617-0.78125,2.0473633,0,2.828125  c0.3901367,0.390625,0.9023438,0.5859375,1.4140625,0.5859375s1.0239258-0.1953125,1.4140625-0.5859375l4.2426758-4.2426758  c0.78125-0.7807617,0.78125-2.0473633,0-2.828125C17.0776367,45.3608398,15.8100586,45.3608398,15.0297852,46.1420898z M32,52  c-1.1044922,0-2,0.8955078-2,2v6c0,1.1044922,0.8955078,2,2,2s2-0.8955078,2-2v-6C34,52.8955078,33.1044922,52,32,52z   M48.9702148,46.1420898c-0.7802734-0.78125-2.0478516-0.78125-2.828125,0c-0.78125,0.7807617-0.78125,2.0473633,0,2.828125  l4.2426758,4.2426758c0.3901367,0.390625,0.9023438,0.5859375,1.4140625,0.5859375s1.0239258-0.1953125,1.4140625-0.5859375  c0.78125-0.7807617,0.78125-2.0473633,0-2.828125L48.9702148,46.1420898z M60,30h-6c-1.1044922,0-2,0.8955078-2,2s0.8955078,2,2,2h6  c1.1044922,0,2-0.8955078,2-2S61.1044922,30,60,30z M47.5561523,18.4438477c0.5117188,0,1.0239258-0.1953125,1.4140625-0.5859375  l4.2426758-4.2426758c0.78125-0.7807617,0.78125-2.0473633,0-2.828125c-0.7802734-0.78125-2.0478516-0.78125-2.828125,0  l-4.2426758,4.2426758c-0.78125,0.7807617-0.78125,2.0473633,0,2.828125  C46.5322266,18.2485352,47.0444336,18.4438477,47.5561523,18.4438477z M32,12c1.1044922,0,2-0.8955078,2-2V4  c0-1.1044922-0.8955078-2-2-2s-2,0.8955078-2,2v6C30,11.1044922,30.8955078,12,32,12z M32,15c-9.3740234,0-17,7.6259766-17,17  s7.6259766,17,17,17s17-7.6259766,17-17S41.3740234,15,32,15z M15.0297852,17.8579102  c0.3901367,0.390625,0.9023438,0.5859375,1.4140625,0.5859375s1.0239258-0.1953125,1.4140625-0.5859375  c0.78125-0.7807617,0.78125-2.0473633,0-2.828125l-4.2426758-4.2426758c-0.7802734-0.78125-2.0478516-0.78125-2.828125,0  c-0.78125,0.7807617-0.78125,2.0473633,0,2.828125L15.0297852,17.8579102z"/></svg>